<svg xmlns="http://www.w3.org/2000/svg" width="40.058" height="42.128" viewBox="0 0 40.058 42.128"><g transform="translate(0.098 0.017)"><path d="M21.48,42H2.39a.62.62,0,0,1-.62-.62v-14h1v13a.62.62,0,0,0,.62.62H16.57a.63.63,0,0,0,.63-.62V35a.62.62,0,0,1,.62-.62h3.66a.63.63,0,0,1,.63.62v6.34a.63.63,0,0,1-.63.66Zm-2.66-1h1.66a.63.63,0,0,0,.63-.62V36a.63.63,0,0,0-.63-.62H18.82a.62.62,0,0,0-.62.62v4.34a.62.62,0,0,0,.62.66Z"/><path d="M16.09,37.88H5.86a.55.55,0,0,1-.55-.55v-6.7a.55.55,0,0,1,.55-.55H16.09a.55.55,0,0,1,.55.55v6.7A.55.55,0,0,1,16.09,37.88Zm-1.63-1h.63a.55.55,0,0,0,.55-.55v-4.7a.55.55,0,0,0-.55-.55h-.63a.55.55,0,0,0-.55.55v4.7A.55.55,0,0,0,14.46,36.88Zm-7.6,0h5.5a.55.55,0,0,0,.55-.55v-4.7a.55.55,0,0,0-.55-.55H6.86a.55.55,0,0,0-.55.55v4.7A.55.55,0,0,0,6.86,36.88Z"/><path d="M16,33.07H5.81v-1H16Z"/><path d="M8.89,37.29h-1V30.71h1Z"/><path d="M17.92,27.4l-.7-.71,9.5-9.46a.75.75,0,0,1,1.07,0l9.44,9.47-.71.7-8.73-8.76a.77.77,0,0,0-1.08,0Z"/><path d="M19.19,34.9h-1V28.38h1Z"/><path d="M20.71,34.68h-1v-6.3h1Z"/><path d="M33.93,35.18h-1v-6.8h1Z"/><path d="M36,35.18H35v-6.8h1Z"/><path d="M32.82,35h3.79a.61.61,0,0,1,.61.61v5.8a.61.61,0,0,1-.61.61H32.82a.6.6,0,0,1-.6-.61v-5.8a.6.6,0,0,1,.6-.61Zm2.79,1H33.82a.6.6,0,0,0-.6.61v3.8a.6.6,0,0,0,.6.61h1.79a.61.61,0,0,0,.61-.61v-3.8A.61.61,0,0,0,35.61,36Z"/><path d="M36.35,41.23h-1V35.64h1Z"/><path d="M23.72,30.59l.06,11,6.3-.06L30,30.59Z" fill="#019a3d"/><path d="M23.93,30.09h5.88a.7.7,0,0,1,.71.7l.06,10.48a.71.71,0,0,1-.71.71L24,42a.71.71,0,0,1-.71-.71L23.22,30.8a.71.71,0,0,1,.71-.71Zm4.88,1H24.93a.71.71,0,0,0-.71.71l.05,8.52A.71.71,0,0,0,25,41h3.88a.7.7,0,0,0,.7-.71l-.05-8.49a.7.7,0,0,0-.72-.71Z"/><path d="M31.2,42.11h-1V30.21h1Z"/><path d="M36.69,28.88H17.07V27.55H1.74a.75.75,0,0,1-.56-1.23l5.58-6.38a.73.73,0,0,1,.56-.25H21.77a.75.75,0,0,0,.51-.21l4.46-4.39a.74.74,0,0,1,1,0L39.35,26.36l.61.21-.17,1H37.37v.65h-.68Zm-18.62-1H35.69V27.2h.68v-.65H38.1L27.77,16.49a.74.74,0,0,0-1,0L16.53,26.55h1.54ZM3.94,26.55H14.8a.7.7,0,0,0,.51-.22L19.77,22a.74.74,0,0,0-.52-1.26H7.77a.75.75,0,0,0-.56.25L3.38,25.32a.75.75,0,0,0,.56,1.23Z"/><path d="M13.6,9.88H18a.69.69,0,0,1,.69.69v5.89a.69.69,0,0,1-.69.69H13.6a.69.69,0,0,1-.69-.69V10.57A.69.69,0,0,1,13.6,9.88Zm3.37,1H14.6a.69.69,0,0,0-.69.69v3.89a.69.69,0,0,0,.69.69H17a.69.69,0,0,0,.69-.69V11.57a.69.69,0,0,0-.69-.69Z"/><path d="M23.63,16.29a.86.86,0,0,1-.87.86H17.93v-1h3.83a.86.86,0,0,0,.87-.86V11.75a.87.87,0,0,0-.87-.87H17.93v-1h4.83a.87.87,0,0,1,.87.87Z"/><path d="M13.55,14.48v-1l9.34-.15v1Z"/><path d="M3.52,25.25h-1v-9a1,1,0,0,0-1-1H1a1,1,0,0,1-.6-1.86L17.59.21a1,1,0,0,1,1.27,0l16,13a1,1,0,0,1-.59,1.82h0a1,1,0,0,0-1,1v4.62h-1V15.1a1,1,0,0,1,1-1l1-.06L18.84,1.51a1,1,0,0,0-1.27,0L1,14.23H2.49a1,1,0,0,1,1,1Z"/><path d="M3.83,24.41h-1V14.48L18,3.12,33.29,14.29l-.59.81L18,4.36,3.83,15Z"/><path d="M4.85,11h-1V4.46a.69.69,0,0,1,.69-.69H8.42a.68.68,0,0,1,.68.69V7.75h-1V5.46a.68.68,0,0,0-.68-.69H5.54a.69.69,0,0,0-.69.69Z"/></g></svg>