<svg xmlns="http://www.w3.org/2000/svg" width="41.937" height="41.67" viewBox="0 0 41.937 41.67"><g transform="translate(-53 -260)"><text transform="translate(62.824 289.798)" fill="#4bb522" font-size="10" font-family="Nunito-Bold, Nunito" font-weight="700" letter-spacing="0.03em"><tspan x="0" y="0">NGO</tspan></text><path d="M41.928,35.556c-.043-1.774-.846-2.955-2.562-3.022-1.4-.051-1.318-.737-1.31-1.684.023-3.423,0-6.847,0-10.27,0-1.408-.546-2.16-2.02-2.242-2.554-.144-2.554-.179-2.554-2.764V14.4c-.023-2.261-.343-2.593-2.562-2.6H22.2c-.554,0-1.291.105-1.139-.819.1-.612-.464-1.743.468-1.766,2.772-.058,5.334-1.7,8.188-.979,1.142.289,1.716-.292,1.735-1.427s0-2.339,0-3.486C31.424,1.187,30.831.645,28.7.509c-2.047-.133-3.9.733-5.9.916-.6.055-1.384.421-1.7-.39-.214-.53-.152-1.287-.975-1-.69.242-.425,1-.429,1.56-.019,2.971-.047,5.942,0,8.913,0,1-.242,1.357-1.294,1.3-1.739-.09-3.49,0-5.232,0-4.991,0-5.092-.519-4.924,4.885.047,1.376-.39,1.727-1.716,1.688-2.3-.07-2.659.363-2.663,2.706V31.162c0,.581.242,1.17-.827,1.337-2.534.39-3,1.061-3.014,3.56-.023,5.4.16,5.607,5.459,5.552.23,0,3.2,0,7.334-.023a1.708,1.708,0,0,0,.5.051H35.986C41.889,41.639,42.06,41.436,41.928,35.556ZM23.084,2.832c1.56,0,3.143-.663,4.733-.912,1.384-.222,2.491.051,2.238,1.887a6.425,6.425,0,0,0,0,1.56c.129,1.092-.211,1.443-1.38,1.31a13.911,13.911,0,0,0-4.753.729c-2.729.651-2.862.522-2.862-2.456C20.674,3.519,21.181,2.828,23.084,2.832ZM13.235,13.27c5.735,0,11.467.047,17.2,0,1.337,0,1.751.335,1.723,1.7-.074,3.388,0,3.392-3.474,3.392H20.756c-3.221,0-6.445-.047-9.662.023-1.111.023-1.384-.328-1.4-1.408C9.664,13.285,9.621,13.274,13.235,13.27ZM5.273,31.022c.1-3.291.066-6.585,0-9.88,0-1.1.347-1.435,1.45-1.431q14.243.051,28.482,0c1.131,0,1.431.39,1.415,1.466-.051,3.357-.062,6.714,0,10.071,0,1.076-.39,1.271-1.341,1.259-4.846-.039-9.689,0-14.535,0v-.035c-4.648,0-9.3-.031-13.951.027C5.687,32.492,5.234,32.293,5.273,31.022ZM38.22,40.165c-7.88-.078-15.764-.035-23.647-.035H13.22a1.56,1.56,0,0,0-.335.023H5.422c-4.312-.082-3.829.542-3.934-3.977C1.449,34.5,1.979,33.9,3.7,33.927c5.685.086,11.369.035,17.054.035h15.7c4.347,0,3.852-.425,3.957,3.95C40.462,39.58,39.974,40.184,38.22,40.165Z" transform="translate(52.984 260.029)"/></g></svg>