<svg xmlns="http://www.w3.org/2000/svg" width="43.712" height="43.705" viewBox="0 0 43.712 43.705"><g transform="translate(0)"><path d="M39.583,14.46a9.008,9.008,0,0,0,.671-.739.9.9,0,0,1,.929-.327,2.855,2.855,0,0,1,2.533,2.762.706.706,0,0,1-.228.577c-.652.633-1.285,1.288-1.939,1.921a.418.418,0,0,0-.134.493A4.52,4.52,0,0,1,41.6,20.4a.559.559,0,0,1-.215.537c-.211.144-.135.255.012.411a2.445,2.445,0,0,1-.068,3.87c-.507.509-1,1.032-1.53,1.519a.982.982,0,0,0-.32.805c.008,5.225,0,10.45.015,15.675,0,.383-.082.471-.471.471q-17.15-.018-34.3,0c-.365,0-.484-.057-.483-.463.016-5.312,0-10.625.025-15.938,0-.471-.135-.553-.553-.529-.6.036-1.205-.024-1.8.02-.426.031-.485-.131-.483-.506.014-2.965,0-5.929.016-8.893,0-.353-.042-.5-.459-.489-.957.039-.924.011-.972-.966a1.347,1.347,0,0,1,.578-1.251c1.136-.9,2.222-1.871,3.341-2.8a.811.811,0,0,0,.331-.706c-.012-3.581,0-7.162-.018-10.743,0-.359.084-.444.45-.444q12.77.018,25.544,0a.824.824,0,0,1,.652.259q4.16,4.182,8.344,8.344a.824.824,0,0,1,.265.65c-.011,1.716-.006,3.431-.006,5.148ZM27.936,23.955h-5.76c-1.018,0-1,0-1.023-1.012-.007-.33.077-.408.406-.406,2.465.015,4.932.009,7.4,0,.154,0,.32.053.458-.084.421-.417.848-.824,1.356-1.323H22.155c-.995,0-.979,0-1-.99-.008-.343.082-.43.427-.427,3.391.014,6.782.008,10.173,0,.142,0,.311.065.424-.047.441-.431.87-.875,1.348-1.36H22.136c-.972,0-.952,0-.981-.968-.011-.366.082-.453.45-.451,3.743.015,7.487.008,11.23.009.321,0,.732-.106.942.051s.042.6.08.917c0,.021.031.04.071.088A21.1,21.1,0,0,0,35.641,16.2a1.734,1.734,0,0,1,2.091-.589c.323.1.353,0,.353-.284-.011-1.7-.015-3.406,0-5.108,0-.323-.1-.376-.392-.374-2.378.013-4.756.007-7.135.007-.942,0-.963,0-.926-.956.016-.412-.118-.463-.485-.461-3.9.013-7.809,0-11.714.016-.376,0-.517-.057-.509-.481q.045-2.354,0-4.709c-.008-.412.127-.461.486-.46,3.743.013,7.487.008,11.23.008.984,0,.971,0,.988-1,0-.311-.047-.416-.394-.416q-11.583.019-23.165,0c-.373.013-.412.131-.412.451.011,2.7.006,5.4.006,8.1V10.4l.25-.206C7.119,9.17,8.339,8.155,9.533,7.114c.28-.245.437-.235.715,0q4.456,3.8,8.939,7.562a1.376,1.376,0,0,1,.58,1.25c-.048.978-.014,1-1.012.972-.365-.009-.419.118-.417.439.011,2.994,0,5.988.018,8.983,0,.41-.118.463-.484.461-3.906-.013-7.81,0-11.715-.021-.443,0-.507.126-.506.53q.022,7.222,0,14.444c0,.414.06.554.527.553q15.7-.025,31.4,0c.443,0,.509-.125.506-.529q-.028-4.426,0-8.851c0-.377-.059-.526-.484-.507a2.11,2.11,0,0,1-2.166-1.343,2.16,2.16,0,0,1,.558-2.491c.619-.626,1.247-1.245,1.867-1.87.1-.1.222-.178.22-.353-.009-.667,0-1.334,0-2l-.112-.062a3.356,3.356,0,0,1-.29.373q-6.864,6.87-13.728,13.736a1.418,1.418,0,0,1-.706.4c-1.38.331-2.755.683-4.131,1.026l-2.439.61c.559-2.228,1.105-4.385,1.634-6.546a1.507,1.507,0,0,1,.426-.742q3.96-3.948,7.913-7.906C27.043,24.826,27.45,24.433,27.936,23.955ZM9.886,16.909H3.194c-.235,0-.363,0-.361.313q.022,3.918,0,7.838c0,.25.067.319.315.313.718-.016.438-.02,1.157,0,.292.008.36-.079.353-.363-.006-.714-.006-4-.013-4.931,0-.291.078-.353.361-.353,2.584.012,6.168.012,8.75,0,.288,0,.36.075.353.361-.014,1.648,0,3.287-.013,4.931,0,.288.074.367.36.353.69-.021,1.381-.027,2.069,0,.335.014.4-.084.4-.408q-.022-3.829,0-7.661c0-.333-.082-.4-.407-.4C14.319,16.916,12.1,16.909,9.886,16.909ZM23.278,37.038c.091-.085.165-.151.235-.221q4.9-4.9,9.813-9.8c.2-.2.182-.294-.007-.48-.913-.892-1.82-1.792-2.707-2.707-.235-.235-.345-.235-.577,0q-2.99,3.019-6,6.014c-1.245,1.245-2.487,2.493-3.739,3.733-.173.172-.244.268-.026.48.942.919,1.873,1.862,2.808,2.8l.2.181ZM17.9,15.484a.855.855,0,0,0-.08-.1c-2.569-2.169-5.135-4.326-7.689-6.513-.253-.217-.367-.092-.539.054Q6.573,11.48,3.55,14.034c-.551.471-1.1.933-1.709,1.45Zm22.275,4.54a.726.726,0,0,0-.014-.086,3.56,3.56,0,0,0-2.975-3,.4.4,0,0,0-.386.131q-1.582,1.589-3.178,3.169c-.155.153-.138.235.008.385q1.423,1.406,2.825,2.825c.161.164.25.173.417,0,1.039-1.059,2.091-2.1,3.137-3.145.081-.072.19-.14.16-.283ZM9.894,21.136c-.837,0-1.674.009-2.51,0-.244,0-.321.057-.319.311q.021,1.8,0,3.609c0,.244.057.32.311.318q2.51-.015,5.019,0c.242,0,.321-.057.318-.311q-.019-1.8,0-3.609c0-.244-.058-.324-.312-.319C11.564,21.146,10.727,21.136,9.894,21.136ZM36.968,8.453,31.026,2.508v5.73c0,.235.118.215.275.215Q34.133,8.451,36.968,8.453ZM19.711,7.022c.471,0,1.1.185,1.358-.048.3-.266.075-.908.088-1.386.012-.438.159-1.029-.061-1.274-.253-.28-.853-.075-1.3-.085-.471-.011-1.1-.171-1.36.065-.3.268-.074.909-.087,1.387-.012.438-.159,1.025.061,1.275C18.664,7.243,19.264,7,19.711,7.022Zm4.238,0c.471,0,1.1.184,1.355-.048.29-.268.074-.91.084-1.389.009-.437.155-1.031-.067-1.27-.257-.274-.855-.073-1.3-.08s-1.1-.167-1.355.071c-.29.271-.074.91-.085,1.389-.008.437-.154,1.029.067,1.27.255.275.855.041,1.3.053Zm2.872-1.427c0,.471-.184,1.1.048,1.36.265.3.908.075,1.386.089.437.013,1.028.16,1.274-.06.283-.252.077-.852.087-1.295.011-.471.172-1.1-.064-1.36-.268-.3-.909-.075-1.387-.089-.437-.013-1.024-.16-1.275.06-.291.242-.046.843-.071,1.29Zm5.612,15.861c-.073.066-.127.112-.178.162-.25.247-.49.506-.749.742-.161.147-.141.235.006.385q1.437,1.42,2.859,2.858c.128.129.215.16.353.012.248-.27.509-.529.776-.777.145-.135.127-.222,0-.353-.969-.959-1.929-1.925-2.895-2.886-.054-.054-.111-.094-.174-.147ZM21.76,37.7,19.4,35.336c-.246.994-.509,2.049-.783,3.151ZM39.546,16.414a5.325,5.325,0,0,1,.955.942c.139.2.22.148.353,0a14.126,14.126,0,0,1,1.123-1.115.525.525,0,0,0,.079-.824,1.53,1.53,0,0,0-.6-.505.378.378,0,0,0-.5.094C40.506,15.484,40.029,15.94,39.546,16.414Zm-.062,8.593a.589.589,0,0,0,.118-.055c.312-.307.627-.612.932-.926a1.017,1.017,0,0,0,.011-1.547c-.258-.293-.425-.31-.706-.011a1.089,1.089,0,0,0-.363.875c.034.534.008,1.076.008,1.661Zm-1.409,3.468c-.433.436-.8.79-1.152,1.162a.761.761,0,0,0-.1,1.036A1.28,1.28,0,0,0,37.994,31c.107-.052.079-.142.08-.222C38.075,30.042,38.075,29.311,38.075,28.475Z" transform="translate(-0.007 0.013)"/><path d="M185.97,97.224q-2.974,0-5.945.007c-.278,0-.368-.058-.366-.353.007-1.059,0-1.059,1.059-1.059q5.615,0,11.23-.008c.318,0,.419.06.411.4-.021,1.017,0,1.017-1.018,1.017Z" transform="translate(-158.512 -84.345)" fill="#4bb522"/><path d="M186.051,119.728c1.967,0,3.934.009,5.9-.008.33,0,.412.077.406.406-.02,1.011,0,1.012-1.023,1.012-3.743,0-7.487-.006-11.23.009-.366,0-.461-.084-.451-.451.028-.968.008-.969.981-.969Z" transform="translate(-158.507 -105.415)" fill="#4bb522"/><path d="M59.8,325.348c.033-.228-.109-.544.055-.673.52-.417.78-1.11,1.475-1.343a1.8,1.8,0,0,1,2.081.729c.611.751.624.766,1.25-.006a1.748,1.748,0,0,1,2.966-.013c.165.2.285.453.53.577.128.063.1.162.1.258v.617c0,.645-.066.682-.687.412a2.816,2.816,0,0,1-1.018-.942c-.335-.423-.471-.422-.811,0-.036.045-.071.093-.107.139-1.018,1.295-2.165,1.295-3.188.022-.054-.069-.106-.141-.162-.208-.3-.353-.436-.353-.731-.007-.2.236-.393.471-.6.7a1.208,1.208,0,0,1-.281.21c-.255.15-.564.33-.817.206C59.691,325.935,59.828,325.579,59.8,325.348Z" transform="translate(-52.738 -284.74)" fill="#4bb522"/><path d="M63.452,252.836c-1.071,0-2.142-.007-3.214.006-.248,0-.313-.065-.317-.314-.012-1.1-.021-1.1,1.059-1.1,1.883,0,3.757.006,5.636-.007.287,0,.364.072.361.359-.007,1.059,0,1.059-1.065,1.059Z" transform="translate(-52.867 -221.471)" fill="#4bb522"/><path d="M63.452,276.777c-1.071,0-2.142-.008-3.214.006-.248,0-.313-.066-.317-.314-.012-1.1-.021-1.1,1.059-1.1,1.883,0,3.757.007,5.636-.007.287,0,.364.072.361.36-.007,1.059,0,1.059-1.065,1.059Z" transform="translate(-52.867 -242.567)" fill="#4bb522"/><path d="M61.43,300.1c0,.682,0,.682-.685.682-.725,0-.725,0-.725-.729,0-.68,0-.68.684-.68C61.43,299.37,61.43,299.37,61.43,300.1Z" transform="translate(-52.956 -263.725)" fill="#4bb522"/><path d="M84.624,300.779c-.684,0-.684,0-.684-.682,0-.727,0-.727.726-.727.684,0,.684,0,.684.682C85.35,300.779,85.35,300.779,84.624,300.779Z" transform="translate(-74.06 -263.725)" fill="#4bb522"/><path d="M109.283,300.066c0,.706,0,.706-.706.706s-.706,0-.706-.706,0-.706.706-.706S109.283,299.361,109.283,300.066Z" transform="translate(-95.173 -263.717)" fill="#4bb522"/><path d="M252.97,335.99c0,.742,0,.742-.756.742-.654,0-.654,0-.654-.667,0-.742,0-.742.756-.742C252.97,335.317,252.97,335.317,252.97,335.99Z" transform="translate(-221.949 -295.407)" fill="#4bb522"/><path d="M276.186,336.663c-.706,0-.706,0-.706-.706s0-.706.706-.706.706,0,.706.706S276.893,336.663,276.186,336.663Z" transform="translate(-243.053 -295.344)" fill="#4bb522"/><path d="M300.86,336c0,.686,0,.686-.679.686-.731,0-.731,0-.731-.723,0-.686,0-.686.679-.686C300.86,335.28,300.86,335.28,300.86,336Z" transform="translate(-264.201 -295.37)" fill="#4bb522"/><rect width="6.5" height="4.5" rx="0.5" transform="translate(6.243 21)" fill="#4bb522"/></g></svg>