<svg xmlns="http://www.w3.org/2000/svg" viewBox="0 0 720.95 720"><g id="Layer_2" data-name="Layer 2"><g id="Layer_1-2" data-name="Layer 1"><path d="M719.49,368.54a352.61,352.61,0,0,1-75.76,212,11,11,0,0,1-13,5.1,10.67,10.67,0,0,1-4.7-17c6.61-8.59,13-17.31,18.76-26.43A333.67,333.67,0,0,0,693,419.07C725.64,235.37,603.21,60,419.52,27.31S60.43,117.06,27.76,300.75a338.62,338.62,0,0,0-4.94,72.91,333.87,333.87,0,0,0,70,192.58,13.69,13.69,0,0,1,4.31,11,10.17,10.17,0,0,1-7.83,8.57,10.52,10.52,0,0,1-11.46-4.2,371.68,371.68,0,0,1-25.69-37.39,357.16,357.16,0,0,1-50-207.8A350.46,350.46,0,0,1,75.32,141.94,353.44,353.44,0,0,1,282.16,9.65a338.1,338.1,0,0,1,99.72-8,354.34,354.34,0,0,1,250.57,124.4,350.41,350.41,0,0,1,79.28,159.73A385.22,385.22,0,0,1,719.49,368.54Z"/><path d="M634.22,587.12a11.7,11.7,0,0,1-3.7-.64,11.3,11.3,0,0,1-7.29-7.39,12.12,12.12,0,0,1,2.23-10.91c7.67-9.91,13.61-18.37,18.73-26.43a331.08,331.08,0,0,0,48-122.88c32.6-183.09-89.4-357.93-272.49-390.52a336.4,336.4,0,0,0-59.1-5.21c-5.85,0-11.78.15-17.63.46C157.14,33.19,14.26,191.6,23.84,377.44A337.08,337.08,0,0,0,93.43,565.75l.28.36a13.84,13.84,0,0,1,4.18,11.33,11,11,0,0,1-8.44,9.22,13.34,13.34,0,0,1-3.09.38,11.4,11.4,0,0,1-9.22-4.88,375.68,375.68,0,0,1-25.73-37.45A356.39,356.39,0,0,1,1.33,336.35,352.32,352.32,0,0,1,74.66,141.46,354.24,354.24,0,0,1,282,8.79,338.53,338.53,0,0,1,358.64,0c7.75,0,15.58.26,23.29.81A367.94,367.94,0,0,1,520.34,37.29a366.82,366.82,0,0,1,112.77,88.2,352.37,352.37,0,0,1,79.46,160.09,384.89,384.89,0,0,1,7.75,83,353.64,353.64,0,0,1-76,212.53A13,13,0,0,1,634.22,587.12ZM360.58,21.49c187,.09,338.51,151.75,338.42,338.75a338.33,338.33,0,0,1-5.21,59,332.53,332.53,0,0,1-48.23,123.47c-5.13,8-11.11,16.52-18.79,26.43a10.46,10.46,0,0,0-2,9.43,9.64,9.64,0,0,0,6.24,6.31,10.21,10.21,0,0,0,12-4.82,352.09,352.09,0,0,0,75.58-211.48A384.16,384.16,0,0,0,711,286a350.73,350.73,0,0,0-79.08-159.35,354.73,354.73,0,0,0-250-124.1c-7.68-.53-15.48-.79-23.13-.79a337.49,337.49,0,0,0-76.38,8.72,354.18,354.18,0,0,0-206.46,132A350.88,350.88,0,0,0,3,336.47,354.65,354.65,0,0,0,52.83,543.91a372.62,372.62,0,0,0,25.62,37.3,9.72,9.72,0,0,0,10.62,3.84,9.28,9.28,0,0,0,7.21-7.92A12.34,12.34,0,0,0,92.37,567l-.28-.37A338.94,338.94,0,0,1,32,277a332.88,332.88,0,0,1,42.85-99.27A341.07,341.07,0,0,1,237,44.63,333.62,333.62,0,0,1,342.87,22C348.73,21.64,354.7,21.49,360.58,21.49Z"/><path d="M560.82,324.18h0V161.79a32.8,32.8,0,0,0-31.2-34.32h-275a39,39,0,0,0-8.48.84A32.67,32.67,0,0,0,220.47,161V310.4a10.18,10.18,0,0,0,20.31,1.54c0-.21,0-.42,0-.63a9.64,9.64,0,0,0,0-1.52v-148a12.44,12.44,0,0,1,10.56-14,11.94,11.94,0,0,1,3.48,0H526.6a12.38,12.38,0,0,1,13.84,10.72h0a11.94,11.94,0,0,1,0,3.16V475.39c0,2.57-.51,3.42-3.3,3.3-25.87-.12-51.75,0-77.63,0a10.28,10.28,0,0,0-11.56,8.8,9.81,9.81,0,0,0,0,2.76v78.64c0,2.67-.4,3.6-3.42,3.6q-95-.16-190.09,0a12.3,12.3,0,0,1-13.8-10.59,13,13,0,0,1-.09-2.25,10.44,10.44,0,0,0-9.81-9.63,10.28,10.28,0,0,0-10.2,8.36,20.32,20.32,0,0,0,.67,9.1,32.71,32.71,0,0,0,33,25.32h146q28.55,0,57.08.1a12.28,12.28,0,0,0,9-4q45.06-45.14,90.18-90.17a13.35,13.35,0,0,0,4.18-10Q560.77,406.34,560.82,324.18ZM468.73,557.75c-.93-.56-.45-1.57-.45-2.36V501.76c0-1.9.21-2.79,2.51-2.79,18.33.1,36.67,0,55,0a10,10,0,0,1,1.52.18Z" fill="#4bb522"/><path d="M254.18,126.65H526.42a33.63,33.63,0,0,1,35.17,32v330a14.17,14.17,0,0,1-4.43,10.63c-29.5,29.47-59.85,59.81-90.15,90.15a13.23,13.23,0,0,1-9.62,4.26c-18.79,0-38-.1-57.08-.1h-146a33.59,33.59,0,0,1-33.78-25.95,21.32,21.32,0,0,1-.69-9.46,11.07,11.07,0,0,1,11-9,11.29,11.29,0,0,1,10.58,10.39,11.56,11.56,0,0,0,10.94,12.15h0a11.61,11.61,0,0,0,2.13-.08h62c42.55,0,85.64,0,128.1.1,2.43,0,2.6-.38,2.6-2.77V490.3a11.07,11.07,0,0,1,9.6-12.36,10.78,10.78,0,0,1,2.78,0h77.83c2,0,2.23-.32,2.23-2.55V161.59a11.56,11.56,0,0,0-9.84-13.05,12.09,12.09,0,0,0-3.18,0H254.79a11.56,11.56,0,0,0-13.21,9.63,11.31,11.31,0,0,0,0,3.58v148a11,11,0,0,1-9.84,12c-.32,0-.64.05-1,.05a12.79,12.79,0,0,1-2.38-.23,10.88,10.88,0,0,1-8.76-11.18V161A33.32,33.32,0,0,1,246,127.52,38.77,38.77,0,0,1,254.18,126.65ZM560,325V161.79a32.06,32.06,0,0,0-30.58-33.49h0a28.83,28.83,0,0,0-2.94,0H254.18a37.78,37.78,0,0,0-7.85.82,31.69,31.69,0,0,0-25,31.85v149.4a9.28,9.28,0,0,0,7.38,9.63,11.17,11.17,0,0,0,2.07.2,9.4,9.4,0,0,0,9.2-9.59,4.3,4.3,0,0,0,0-.8v-148a13.21,13.21,0,0,1,14.86-14.87H526.6a13.2,13.2,0,0,1,14.67,11.55,12.93,12.93,0,0,1,0,3.17V475.39c0,2.72-.61,4.19-3.88,4.19H459.56a9.48,9.48,0,0,0-10.72,8.06v0a9.58,9.58,0,0,0,0,2.62v78.64c0,3-.62,4.42-4.21,4.42-42.49,0-85.59-.09-128.11-.09h-62A13.06,13.06,0,0,1,239.89,562a14.5,14.5,0,0,1-.1-2.28,9.64,9.64,0,0,0-9-8.89h-.38a9.5,9.5,0,0,0-9,7.72,20.26,20.26,0,0,0,.68,8.72,32,32,0,0,0,32.18,24.67h146c19.09,0,38.3,0,57.1.1a11.41,11.41,0,0,0,8.44-3.78c30.31-30.36,60.65-60.7,90.18-90.16a12.61,12.61,0,0,0,3.93-9.43C560,434,560,378.92,560,325Zm-89.3,173.16h55a14.87,14.87,0,0,1,1.65.2l1.57.28-60.1,60.12-.56-.33a2.28,2.28,0,0,1-.9-2.54,2.26,2.26,0,0,0,0-.52V501.75c0-1.89.25-3.59,3.29-3.59Zm29.61,1.65H470.76c-1.66,0-1.66.22-1.66,2v53.63a4.82,4.82,0,0,1,0,.76v.15l56.44-56.44Z" fill="#4bb522"/><path d="M360.51,617.54h347.3a10.64,10.64,0,0,1,2.42,21.14H13.17c-7.77,0-12.45-4.16-12.32-10.9a10.55,10.55,0,0,1,9.91-10.25H360.51Z"/><path d="M12,616.67H707.86a11.46,11.46,0,1,1,3.24,22.69c-.25,0-.49.06-.74.08H13.17A13.85,13.85,0,0,1,3,635.83a11,11,0,0,1-3-8.13,11.31,11.31,0,0,1,10.67-11.07Zm697.37,21.22h.86a9.82,9.82,0,0,0-2.37-19.49H10.8a9.66,9.66,0,0,0-9.12,9.46,9.35,9.35,0,0,0,2.48,6.94,12.3,12.3,0,0,0,9,3.12H707.55Z"/><path d="M344.74,437V352.57A21,21,0,0,0,325,330.43H184.66a21.14,21.14,0,0,0-22.24,20v0a23,23,0,0,0,0,2.35v168.8a21.8,21.8,0,0,0,21.27,22.32h1q69-.46,138.07,0a21.74,21.74,0,0,0,22.1-21.37v-.73C344.52,493.51,344.74,465.26,344.74,437Zm-15.15,83.74c0,6.16-1.76,7.94-7.89,7.94H186c-6.77,0-8.26-1.45-8.26-8.1V353.45c0-6.25,1.65-7.8,7.91-7.8h136c6.11,0,7.89,1.8,7.89,8Z"/><path d="M184.65,329.6H322.72a21.91,21.91,0,0,1,22.83,20.95V461.33c0,19.82,0,40.3.11,60.45a22.72,22.72,0,0,1-6.6,16.34,22.41,22.41,0,0,1-16,6.6h-.36c-22.89-.15-46.13-.23-69-.23s-46.13,0-69,.23h-.15a22.57,22.57,0,0,1-23-22.15V352.75A21.87,21.87,0,0,1,182,329.6h0A22.55,22.55,0,0,1,184.65,329.6ZM323.07,543.07a20.7,20.7,0,0,0,14.86-6.13,20.93,20.93,0,0,0,6.13-15.14c-.18-20.17-.15-40.67-.11-60.48V352.56a20.13,20.13,0,0,0-18.88-21.32,19.6,19.6,0,0,0-2.3,0H184.7a20.34,20.34,0,0,0-21.48,19.09,23.62,23.62,0,0,0,0,2.38V521.55A21,21,0,0,0,183.66,543h1c22.91-.15,46.13-.23,69-.23s46.14,0,69,.23ZM185.67,344.88h136c6.6,0,8.72,2.13,8.72,8.78V520.79c0,6.61-2.12,8.77-8.72,8.77H186c-7.22,0-9.09-1.83-9.09-8.93V353.45c0-6.69,2-8.62,8.79-8.62Zm136,183c5.68,0,7.07-1.4,7.07-7.12V353.61c0-5.66-1.46-7.13-7.07-7.13h-136c-5.9,0-7.09,1.17-7.09,7v167c0,6.19,1.11,7.28,7.44,7.28Z"/><path d="M363.37,719.22a365.45,365.45,0,0,1-141.94-28,11.19,11.19,0,0,1-8.26-11.56A10.59,10.59,0,0,1,228.35,671a356.7,356.7,0,0,0,38.45,13.61A339.46,339.46,0,0,0,383.58,697a334.94,334.94,0,0,0,107.87-25.5,10.73,10.73,0,1,1,8.09,19.65A362.36,362.36,0,0,1,416.6,714.7,390.35,390.35,0,0,1,363.37,719.22Z"/><path d="M363.37,720h0a366.66,366.66,0,0,1-142.26-28,12,12,0,0,1-8.77-12.37,11.25,11.25,0,0,1,11.27-10.34,13,13,0,0,1,5.07,1.06A356.47,356.47,0,0,0,267,683.89a335.31,335.31,0,0,0,93.18,13c7.68,0,15.53-.25,23.32-.76A333,333,0,0,0,491.1,670.69a16,16,0,0,1,6.12-1.32,11.18,11.18,0,0,1,10.43,15.18,13.9,13.9,0,0,1-7.83,7.3,362.85,362.85,0,0,1-83.13,23.6,390.76,390.76,0,0,1-53.36,4.5ZM223.61,671a9.66,9.66,0,0,0-9.62,8.89,10.4,10.4,0,0,0,7.77,10.65,364.89,364.89,0,0,0,141.62,27.88,388.83,388.83,0,0,0,53.12-4.48,361.32,361.32,0,0,0,82.75-23.48,12.2,12.2,0,0,0,6.93-6.39,9.55,9.55,0,0,0-8.88-12.9,14.3,14.3,0,0,0-5.5,1.19,334.9,334.9,0,0,1-108.13,25.55c-7.85.49-15.73.76-23.44.76a337.54,337.54,0,0,1-93.65-13.1A359,359,0,0,1,228,671.9a11.17,11.17,0,0,0-4.42-.91Z"/><path d="M416.34,295.46q-11.22-49.06-22.27-98.17c-.44-2-1.27-2.28-3-2.27-6.72,0-13.44.17-20.17,0-2.52,0-3.15.86-3.66,3.16-5.23,23.91-10.68,47.82-16,71.66-2,9.14-4,18.29-6.16,27.7,5.77,0,11.23-.13,16.68,0,2.35,0,3.11-.76,3.47-2.91,1.08-6.49,2.38-12.95,3.52-19.42.4-2.2,1.06-3.47,3.83-3.3a140.91,140.91,0,0,0,15.38,0c2.64-.14,3.42.87,3.85,3.3,1.1,6.49,2.44,12.93,3.61,19.41.37,2,.93,3.12,3.39,3,5.22-.23,10.47-.11,15.74,0C416.17,297.57,416.77,297.28,416.34,295.46Zm-42-39.06c-1.41,0-1.83-.5-1.65-1.8,2.39-12.79,4.79-25.59,8-38.42,2.51,13.31,5,26.61,7.61,40.2H374.37Z"/><path d="M398.5,298.38c-3,0-3.57-1.9-3.88-3.68-.5-2.76-1-5.5-1.56-8.26-.71-3.65-1.43-7.43-2.06-11.18-.4-2.2-1-2.64-3-2.54a142.37,142.37,0,0,1-15.46,0c-2.15-.14-2.61.53-3,2.62-.46,2.61-.94,5.22-1.44,7.81-.71,3.8-1.44,7.73-2.08,11.57a3.65,3.65,0,0,1-3.67,3.65h0a4.46,4.46,0,0,1-.63-.05c-2,0-4.18-.1-6.85-.1H344.08l.23-1q1.5-6.6,2.94-13.21c1.07-4.86,2.15-9.68,3.3-14.49L355.62,247c3.62-16.08,7.37-32.73,11-49.12.56-2.54,1.4-3.88,4.49-3.79,2.77.08,5.7.13,9.2.13h11.1a3.15,3.15,0,0,1,3.59,2.64h0a1,1,0,0,1,0,.25c7.39,32.77,14.87,65.79,22.27,98.16a2.77,2.77,0,0,1-.23,2.35,2.5,2.5,0,0,1-2,.71H406c-2.48,0-4.95,0-7,.13Zm-10.09-27.32c2.9,0,3.78,1.66,4.21,3.94.64,3.73,1.35,7.49,2.06,11.14.53,2.76,1.06,5.5,1.56,8.26.33,1.89.74,2.41,2.54,2.33,2.11-.1,4.43-.13,7.05-.13h8.74c.87,0,1.06,0,1.07-.08h0a2.05,2.05,0,0,0-.1-.95c-7.4-32.37-14.86-65.4-22.26-98.17-.33-1.45-.69-1.65-2-1.65h-11.1c-3.51,0-6.44,0-9.24-.13h-.25c-1.65,0-2.12.43-2.58,2.51-3.62,16.38-7.37,33-11,49.12q-2.55,11.26-5.07,22.53c-1.08,4.8-2.15,9.63-3.31,14.48q-1.34,6.06-2.71,12.21h8.78c2.69,0,4.95,0,6.92.11,1.76,0,2.31-.33,2.62-2.23.65-3.88,1.39-7.83,2.1-11.56.48-2.59,1-5.2,1.44-7.79.36-2,1-4.22,4.69-4a138.9,138.9,0,0,0,15.27,0Zm-14-13.82a2.59,2.59,0,0,1-2.06-.73,2.52,2.52,0,0,1-.35-2l.12-.65c2.33-12.39,4.72-25.19,7.84-37.82h1.66L386,239.47l3.3,17.7H380.2Zm6.26-37.11c-2.67,11.38-4.84,22.87-6.93,34l-.12.62c-.1.55,0,.7,0,.7s.13.13.79.13h13l-3-15.76Z"/><path d="M419.21,297.52c5-10.55,9.91-20.76,14.68-31,3-6.25,5.88-12.52,9-18.68a5.06,5.06,0,0,0,0-5c-7.06-14.71-14-29.5-20.95-44.25-.47-1-.9-2-1.65-3.51h20.37c1.76,0,1.75,1.65,2.19,2.64,4.12,9.58,8.08,19.19,12.18,29a20.15,20.15,0,0,0,3.09-6.16c3.3-7.68,6.6-15.41,9.9-23.12.53-1.23.88-2.43,2.78-2.38,6.36.13,12.72,0,19.09,0a5.83,5.83,0,0,1-1.24,3.61c-7.1,14.57-14.22,29.12-21.47,43.62a6,6,0,0,0,0,6c7.44,15.16,14.75,30.39,22.1,45.6.53,1.11,1,2.23,1.65,3.68H470.86c-1.76,0-2-1.12-2.45-2.23l-13.33-30.8c-1.4.1-1.32,1.3-1.65,2-4.19,9.41-8.39,18.83-12.37,28.34a3.82,3.82,0,0,1-4.29,2.74C431.17,297.39,425.32,297.52,419.21,297.52Z"/><path d="M437.18,298.45h-.3c-2.38-.08-4.95-.13-8.16-.13H417.87l4-8.41c3.8-8,7.52-15.89,11.27-23.75l1.91-4c2.28-4.82,4.64-9.81,7.09-14.67a4.28,4.28,0,0,0,0-4.24c-5.7-11.91-11.41-24-16.91-35.73l-4.05-8.58c-.33-.7-.63-1.39-1-2.25l-1.09-2.46h21.64c2,0,2.46,1.57,2.74,2.49.06.22.14.44.22.65,3.1,7.25,6.21,14.68,9.21,21.86l2.41,5.79a16,16,0,0,0,1.47-3.23c.22-.54.42-1.09.65-1.65,2.33-5.31,4.62-10.73,6.85-16l3-7.14.12-.26a3.38,3.38,0,0,1,3.3-2.61h19.94l.08.72a5.29,5.29,0,0,1-1,3.46c-.11.21-.24.41-.34.62-6.92,14.17-14.09,28.84-21.47,43.62a5.24,5.24,0,0,0,0,5.17c5.76,11.73,11.56,23.65,17.07,35.18L490,293.36c.31.64.61,1.28.94,2l.78,1.65.56,1.18H471.1a3,3,0,0,1-3.07-2.35l-.15-.36-13-30.08a3.16,3.16,0,0,0-.22.61,2.54,2.54,0,0,1-.21.66c-3.9,8.74-8.26,18.65-12.37,28.33A4.55,4.55,0,0,1,437.18,298.45Zm-8.42-1.79c3.3,0,5.83,0,8.25.14h.22a3,3,0,0,0,3.3-2.23c4.08-9.7,8.49-19.61,12.39-28.36a2,2,0,0,0,.13-.41,2.33,2.33,0,0,1,2.2-2.07h.58l13.57,31.38.17.41c.38.93.53,1.33,1.52,1.33h18.78l-.24-.52-.92-2-5.06-10.45c-5.56-11.56-11.31-23.46-17.06-35.13a6.87,6.87,0,0,1,.09-6.73c7.33-14.71,14.5-29.38,21.47-43.57l.39-.72a4.84,4.84,0,0,0,.75-1.65H471c-1.15,0-1.4.46-1.88,1.65L469,198l-3,7.13c-2.23,5.26-4.52,10.69-6.85,16-.22.51-.42,1-.61,1.55a14.12,14.12,0,0,1-2.61,4.82l-.88,1-3.47-8.26c-3-7.18-6.09-14.61-9.2-21.85-.1-.27-.2-.54-.28-.82-.31-1.06-.46-1.32-1.15-1.32H421.69v.13c.38.84.67,1.53,1,2.21l4,8.59c5.52,11.69,11.22,23.8,16.9,35.66a5.84,5.84,0,0,1-.1,5.79c-2.41,4.79-4.77,9.77-7.05,14.59l-1.92,4c-3.73,7.86-7.46,15.72-11.26,23.75l-2.86,6Z"/><path d="M432.52,443.13H370a10,10,0,0,1-4.36-19.21,13.44,13.44,0,0,1,5.67-1H493.65c8.46,0,13.61,6.31,11.13,13.43a10.06,10.06,0,0,1-10,6.76Z"/><path d="M447.65,444H370a10.87,10.87,0,0,1-4.7-20.8,14.19,14.19,0,0,1,6-1.07H493.68a12.83,12.83,0,0,1,10.74,5,10.32,10.32,0,0,1,1.17,9.62A10.82,10.82,0,0,1,494.8,444Zm-77-20.24a12.33,12.33,0,0,0-4.78,1A9.21,9.21,0,0,0,370,442.3h124.8a9.24,9.24,0,0,0,9.23-6.2,8.72,8.72,0,0,0-1-8.11,11.21,11.21,0,0,0-9.4-4.23h-123Z"/><path d="M432.31,363.26H370.45a10,10,0,0,1-2-19.9c.33,0,.66-.05,1-.05H492.77a16,16,0,0,1,5.73.47,10.33,10.33,0,0,1,6.74,10.71,9.89,9.89,0,0,1-9.77,8.73c-5,.12-10,0-15.07,0Z"/><path d="M488.61,364.13H370.44a10.82,10.82,0,0,1-2.23-21.52c.2,0,.4,0,.6-.05H495a10.78,10.78,0,1,1,.51,21.55Zm-7.6-1.65h14.54a9.17,9.17,0,0,0,9-8,9.54,9.54,0,0,0-6.21-9.81,9.23,9.23,0,0,0-3.3-.46H369.43a9.16,9.16,0,1,0,.42,18.32h.54Z"/><path d="M309.23,254.8V215.16c0-2.4-.6-3.09-3-3-5.46.18-11,0-16.41.12-2.2,0-2.68-.65-2.58-2.68.16-4,.11-8,0-12,0-1.76.21-2.61,2.34-2.61q29,.13,58.09,0c1.93,0,2.58.52,2.51,2.48-.13,4.11-.15,8.26,0,12.32,0,2-.63,2.48-2.53,2.43-5.35-.12-10.7.1-16-.1-2.61-.1-3.42.53-3.42,3.3.12,26.08,0,52.16.13,78.26,0,3-.59,4.11-3.81,3.9a102.51,102.51,0,0,0-12.64,0c-2.26.1-2.8-.6-2.79-2.81C309.28,281.44,309.23,268.12,309.23,254.8Z"/><path d="M325.25,298.47h-.78a104.59,104.59,0,0,0-12.52,0h-.46a3.32,3.32,0,0,1-2.41-.78,4,4,0,0,1-.79-2.88c.13-10.65.11-21.47.11-31.87V215.11c0-2-.33-2.18-1.81-2.18H289.47a3.3,3.3,0,0,1-2.44-.78,3.61,3.61,0,0,1-.69-2.77c.13-3.42.13-7.2,0-11.89a3.53,3.53,0,0,1,.69-2.7,3.3,3.3,0,0,1,2.46-.77H347.6a3.49,3.49,0,0,1,2.64.79,3.37,3.37,0,0,1,.69,2.54c-.15,4.31-.15,8.26,0,12.26a2.67,2.67,0,0,1-2,3.25,2.57,2.57,0,0,1-1.17,0H337.22c-2.24,0-4,0-5.7-.08h-.43c-1.65,0-2.13.25-2.13,2.5v78.23C329.16,296.12,328.87,298.47,325.25,298.47Zm-7-1.87c2.12,0,4.26,0,6.36.2h.66c1.79,0,2.27-.38,2.27-3.09V215.45c0-3,1-4.14,3.78-4.14h.49c1.66,0,3.42.08,5.64.08H348c.68,0,1.09-.08,1.26-.26s.26-.47.23-1.32c-.15-4-.15-8,0-12.37a2,2,0,0,0-.23-1.34c-.18-.2-.66-.28-1.44-.28H289.67c-.86,0-1.17.15-1.29.26a2.72,2.72,0,0,0-.21,1.49c.13,4.72.13,8.54,0,12,0,.85,0,1.36.23,1.56a1.93,1.93,0,0,0,1.26.26h16.6c3.3-.13,3.86,1.36,3.86,3.83-.1,9.91,0,20,0,29.73v18c0,10.44,0,21.24-.11,31.91a2.63,2.63,0,0,0,.31,1.65,2.38,2.38,0,0,0,1.65.27c2-.14,4.13-.2,6.26-.2Z"/><path d="M416.82,403.62H370.37a10,10,0,0,1-2.73-19.8h0a10,10,0,0,1,2.18-.15q46.95-.07,93.91,0a10,10,0,0,1-.13,19.94C448,403.67,432.42,403.62,416.82,403.62Z"/><path d="M448,404.45H370.39A10.61,10.61,0,0,1,359,395.2a11.35,11.35,0,0,1,2.59-8.93,10.85,10.85,0,0,1,8.26-3.42q47-.09,93.91,0a10.8,10.8,0,1,1,.7,21.59h0a5.75,5.75,0,0,1-.83,0Zm-31.19-1.65h46.79a9.15,9.15,0,0,0,.9-18.28H369.83a9.12,9.12,0,0,0-7,2.85,9.82,9.82,0,0,0-2.18,7.65,9,9,0,0,0,9.73,7.78h46.44Z"/><path d="M400.71,482.08H371a10.21,10.21,0,0,1-2.18-20.3,9.92,9.92,0,0,1,2.31,0H430.6A10.21,10.21,0,0,1,442,470.65v0a8.16,8.16,0,0,1,.07,1.4c0,6.19-4.52,10.05-11.56,10.05Z"/><path d="M430.41,483H371a11,11,0,0,1-12.06-9.75,9.77,9.77,0,0,1-.06-1.08,10.58,10.58,0,0,1,2.95-7.68,12.79,12.79,0,0,1,9.3-3.41h59.46a12.79,12.79,0,0,1,9.33,3.41,10.51,10.51,0,0,1,3,7.69A11,11,0,0,1,431.7,483h-1.29Zm-29.57-20.4H371.11a11.16,11.16,0,0,0-8.12,2.93,9,9,0,0,0-2.48,6.5,9.33,9.33,0,0,0,9.36,9.28h0a10,10,0,0,0,1.11-.08h59.46c6.61,0,10.75-3.55,10.77-9.23a9,9,0,0,0-2.48-6.51,11.24,11.24,0,0,0-8.18-2.92Z"/><path d="M314.1,371.48a7.35,7.35,0,0,0-6.13-8.41,7.44,7.44,0,0,0-2.21,0H201.51c-5.83,0-8.49,2.79-8.49,8.67v34.52c0,6.29,2.61,8.9,8.9,8.9H305.48c5.93,0,8.6-2.59,8.64-8.47Q314.16,389,314.1,371.48Zm-15,9.58c-.19,5.49-.14,10.95,0,16.44,0,2-.36,2.69-2.56,2.67q-42.93-.12-86.05,0c-1.94,0-2.47-.54-2.42-2.46.11-5.68.16-11.38,0-17.06,0-2.33.87-2.51,2.74-2.49h85.37c2.43,0,3,.61,3,3Z"/><path d="M253.63,362.2h52.13a8.26,8.26,0,0,1,9.18,7.22h0a8.36,8.36,0,0,1,0,2v35.2c0,6.34-3,9.28-9.47,9.28H201.89c-6.72,0-9.73-3-9.73-9.73v-34.5a8.27,8.27,0,0,1,9.32-9.5Zm51.85,52.11c5.52,0,7.78-2.21,7.81-7.65V371.48c0-5.25-2.31-7.59-7.51-7.61H201.53c-5.31,0-7.67,2.41-7.67,7.84v34.52c0,5.82,2.26,8.08,8.08,8.08Zm-9.17-37a3.8,3.8,0,0,1,2.81.86,4,4,0,0,1,.76,3l-.1,2.77h0c-.08,4.13,0,8.51,0,13.58a2.84,2.84,0,0,1-2,3.49h0a2.9,2.9,0,0,1-1.31,0H210.39a2.75,2.75,0,0,1-3.27-3.31c.15-6.84.15-12.09,0-17a3.37,3.37,0,0,1,.71-2.59,3.57,3.57,0,0,1,2.68-.76h85.55Zm1.93,3.12a1.71,1.71,0,0,0-.29-1.12,2.44,2.44,0,0,0-1.65-.35H210.54a2.62,2.62,0,0,0-1.5.27c-.13.13-.28.48-.25,1.38.15,5,.15,10.24,0,17.12a1.22,1.22,0,0,0,.59,1.61,1.19,1.19,0,0,0,1,0h86a2.4,2.4,0,0,0,1.49-.28,2.68,2.68,0,0,0,.25-1.55c-.17-6.26-.17-11.56,0-16.52Z"/><path d="M256.66,448.55h-8.9a9,9,0,0,1-2.37-.22c-2.87-.87-3.76-4-3-10.25a4.23,4.23,0,0,1,4.26-4.2h.2c5,0,9.78-.11,14.67,0a4.36,4.36,0,0,1,4.49,4.79C266,446.81,267.08,449.09,256.66,448.55Z" fill="#4bb522"/><path d="M259.22,449.46H247.33a10.12,10.12,0,0,1-2.12-.23c-4.24-1.31-4.23-6.38-3.66-11.17a4.94,4.94,0,0,1,4.88-5h.38c5.83-.1,10.38-.1,14.69,0a5,5,0,0,1,5.35,4.63v.1a4.31,4.31,0,0,1,0,.88v2c0,3.47.1,5.74-1.34,7.21A8.37,8.37,0,0,1,259.22,449.46Zm-3.49-1.75h3.49c2.77,0,4.36-.35,5.12-1.13s.92-3,.87-6v-2c0-2.62-1.22-3.91-3.71-4-4.3-.1-8.82-.1-14.64,0a3.41,3.41,0,0,0-3.63,3.16v.31c-.86,7.33.76,8.85,2.45,9.38a8.12,8.12,0,0,0,2.08.16h8Z" fill="#4bb522"/><path d="M256.52,479.78H247a4.28,4.28,0,0,1-4.61-3.92,3.93,3.93,0,0,1,0-.84c0-8.16-.91-10.37,9.34-9.91,3.18.15,6.36,0,9.55,0A4.29,4.29,0,0,1,266,468.9h0a3.39,3.39,0,0,1,0,.78C266.67,479,265.89,479.78,256.52,479.78Z" fill="#4bb522"/><path d="M249.36,480.64H247a5.06,5.06,0,0,1-5.4-4.69h0a6.46,6.46,0,0,1,0-.88v-1.77c0-3.55,0-5.91,1.39-7.38s3.81-1.8,8.85-1.66h9.51a5.1,5.1,0,0,1,5.57,4.6,4.82,4.82,0,0,1,0,.76c.34,4.95.25,7.54-1.22,9.11s-4,1.85-9.14,1.85h-2.39Zm0-14.75c-2.88,0-4.51.35-5.29,1.14s-1,3.07-.91,6.21V475a3.5,3.5,0,0,0,3,3.92h0a3,3,0,0,0,.84,0h9.53c4.43,0,6.87-.2,7.91-1.32s1.08-3.43.78-7.88c-.18-2.64-1.39-3.81-3.93-3.81h-9.6c-1,0-1.57-.05-2.26-.05Z" fill="#4bb522"/><path d="M216.92,448.61h-9.55a4.08,4.08,0,0,1-4.4-3.72v0a2.54,2.54,0,0,1,0-.39v-.35c-.76-9.3,0-10.19,9.36-10.19h9.55a4.26,4.26,0,0,1,4.64,3.84,3.93,3.93,0,0,1,0,.84C226.81,448.18,226.5,448.61,216.92,448.61Z" fill="#4bb522"/><path d="M216.92,449.37h-9.55a4.93,4.93,0,0,1-5.23-4.62V444c-.41-5-.35-7.55,1.12-9.14s4-1.86,9.07-1.86h9.55a5.08,5.08,0,0,1,5.43,4.7h0a4.7,4.7,0,0,1,0,.75c.18,5,.2,7.68-1.3,9.24S221.86,449.37,216.92,449.37Zm1.75-14.71h-6.36c-4.39,0-6.8.21-7.84,1.34s-1.05,3.56-.7,8v.41a3.32,3.32,0,0,0,3.29,3.32h9.86c4.62,0,6.92-.11,7.89-1.12s1-3.62.85-8a3.46,3.46,0,0,0-3-3.87,2.89,2.89,0,0,0-.83,0Z" fill="#4bb522"/><path d="M296.35,448.55h-9.9a4.22,4.22,0,0,1-4.52-3.88h0a5.23,5.23,0,0,1,0-.56c-.68-9.35.11-10.26,9.35-10.26h9.54a4.28,4.28,0,0,1,4.71,3.81,3.84,3.84,0,0,1,0,.83C305.56,446.66,306.54,449.09,296.35,448.55Z" fill="#4bb522"/><path d="M298.77,449.46H286.45a5,5,0,0,1-5.32-4.56c0-.22,0-.43,0-.65-.38-5.12-.3-7.68,1.2-9.28s4.07-1.86,9-1.86h9.56a5.07,5.07,0,0,1,5.52,4.58h0a4.31,4.31,0,0,1,0,.88v1.9c0,3.58.1,5.95-1.37,7.45A8.44,8.44,0,0,1,298.77,449.46Zm-3.3-1.75h3.34c2.72,0,4.27-.35,5.05-1.13s1-3.09.91-6.26v-1.91a3.43,3.43,0,0,0-3-3.83h0a3.39,3.39,0,0,0-.9,0h-9.53c-4.33,0-6.72.21-7.76,1.34s-1.09,3.6-.76,8a3.41,3.41,0,0,0,3.09,3.69,3.32,3.32,0,0,0,.63,0h9Z" fill="#4bb522"/><path d="M305.54,475.67a4.25,4.25,0,0,1-4.37,4.12H301c-5,0-9.78.1-14.65,0a4.08,4.08,0,0,1-4.39-3.74,4.49,4.49,0,0,1,0-.82c0-8.4-1.16-10.53,9.48-10h8.87a8.13,8.13,0,0,1,2.36.23C305.38,466.25,306.35,469.75,305.54,475.67Z" fill="#4bb522"/><path d="M292.48,480.66H286.3a5,5,0,0,1-5.2-4.7q0-.34,0-.69V473c0-3.42,0-5.68,1.33-7.12,1.13-1.14,3-1.65,6.43-1.65H300.7a8.46,8.46,0,0,1,2.13.27c3.31,1,4.4,4.79,3.52,11.19a5.09,5.09,0,0,1-5.35,4.83h-.25C298,480.62,295.24,480.66,292.48,480.66Zm-3.62-14.74c-2.87,0-4.49.35-5.25,1.11s-.91,2.92-.86,5.93v2.25a3.32,3.32,0,0,0,2.83,3.71,4.57,4.57,0,0,0,.74,0h14.62a3.43,3.43,0,0,0,3.73-3.1h0v-.28c.51-3.78.52-8.47-2.33-9.38a7.17,7.17,0,0,0-2.07-.18h-8.93C290.43,465.94,289.61,465.92,288.86,465.92Z" fill="#4bb522"/><path d="M216.79,479.8h-2c-2.5,0-5,.08-7.53,0a4.06,4.06,0,0,1-4.36-3.71,3,3,0,0,1,0-.6v-.68c0-8.16-.88-10.12,9.16-9.7,3.31.14,6.61,0,9.91,0a4.14,4.14,0,0,1,4.49,3.78h0a3.75,3.75,0,0,1,0,.67C227,479.22,226.48,479.8,216.79,479.8Z" fill="#4bb522"/><path d="M209.72,480.66h-2.55a4.86,4.86,0,0,1-5.1-4.6v-3c0-3.47,0-5.77,1.37-7.19s3.72-1.65,8.67-1.52H222a5,5,0,0,1,5.29,4.59,3.31,3.31,0,0,1,0,.63c.33,5.12.31,7.71-1.16,9.28s-4.09,1.77-9.3,1.77h-2Zm0-14.74c-2.88,0-4.41.33-5.17,1.09s-.91,3-.89,6v2.47a3.31,3.31,0,0,0,3.16,3.44h9.87c4.79,0,7.1-.18,8.09-1.24s1-3.3.73-8.06c-.15-2.47-1.29-3.61-3.69-3.66h-9.89Z" fill="#4bb522"/><path d="M266,506.59c-.22,2.57-1.32,4.31-4.2,4.31h-14.3a5.67,5.67,0,0,1-2-.1c-5-2-2.74-6.34-3-9.78a3.76,3.76,0,0,1,2.94-4.41,3.37,3.37,0,0,1,1-.06h15.67a2.66,2.66,0,0,1,.69,0C265.71,497.17,266.58,499.8,266,506.59Z" fill="#4bb522"/><path d="M246.76,511.77a6.69,6.69,0,0,1-1.47-.16h-.11c-4.23-1.65-3.92-5.11-3.65-7.83a14.44,14.44,0,0,0,.1-2.63,5,5,0,0,1,1.14-3.91,4.81,4.81,0,0,1,3.63-1.46h15.81a4,4,0,0,1,.69,0c4,.78,4.44,4.73,4,10.87-.35,4.2-2.93,5.07-5,5.07H247.66A5.32,5.32,0,0,1,246.76,511.77Zm-1-1.77a4.63,4.63,0,0,0,1.66,0h14.41c2.17,0,3.17-1.05,3.31-3.56.58-7.09-.53-8.71-2.6-9.1h-16.2a3.19,3.19,0,0,0-2.43.9,3.49,3.49,0,0,0-.72,2.68,15.85,15.85,0,0,1-.1,2.92c-.17,3.08-.2,5,2.69,6.16Z" fill="#4bb522"/><path d="M305.58,506.12c-.15,2.66-1,4.73-4.11,4.74H286.2a2.8,2.8,0,0,1-1,0c-5.07-1.91-2.75-6.31-3.09-9.71a3.73,3.73,0,0,1,3.85-4.56c2.74-.11,5.46,0,8.17,0h6.48a11.36,11.36,0,0,1,1.65,0C305.16,497.07,306,499.35,305.58,506.12Z" fill="#4bb522"/><path d="M285.82,511.71a3.48,3.48,0,0,1-.9-.12h-.1c-4.31-1.65-4-4.95-3.72-7.71a13.36,13.36,0,0,0,.1-2.68,5,5,0,0,1,1-3.91,4.83,4.83,0,0,1,3.6-1.55h14.71a10.82,10.82,0,0,1,1.8,0c3.9.67,4.42,4,4.08,10.42a5,5,0,0,1-4.36,5.48H285.79Zm-.46-1.65a2.58,2.58,0,0,0,.68,0h15.42c2.22,0,3.13-1.13,3.31-4,.38-6.93-.55-8.26-2.66-8.69a9.64,9.64,0,0,0-1.52,0H285.92a3.32,3.32,0,0,0-2.43,1,3.5,3.5,0,0,0-.62,2.66,15.82,15.82,0,0,1-.1,3c-.3,2.9-.33,4.8,2.59,5.92Z" fill="#4bb522"/><path d="M226.37,506.54a3.63,3.63,0,0,1-2.83,4.28h0a3.4,3.4,0,0,1-1.19,0H207a2.8,2.8,0,0,1-1,0c-5-2-2.64-6.35-3-9.76a3.72,3.72,0,0,1,2.83-4.43,4.14,4.14,0,0,1,1-.08h14.32a6.41,6.41,0,0,1,2,0C228.51,498.49,226,503.05,226.37,506.54Z" fill="#4bb522"/><path d="M206.68,511.71a3.77,3.77,0,0,1-.88-.1h-.11c-4.21-1.65-3.88-5.06-3.62-7.75a13.47,13.47,0,0,0,.18-2.69,5,5,0,0,1,1.06-3.93,4.81,4.81,0,0,1,3.62-1.5h14.23a7.27,7.27,0,0,1,2.28.09h.12c4.47,1.66,4.11,5,3.81,7.82a14,14,0,0,0-.11,2.82,4.63,4.63,0,0,1-1,3.75,5,5,0,0,1-3.83,1.5H206.68Zm-.43-1.65a2.43,2.43,0,0,0,.66,0h15.41a3.41,3.41,0,0,0,2.59-.95,3,3,0,0,0,.61-2.46,15.37,15.37,0,0,1,.12-3.18c.33-3,.36-5-2.68-6.07a5.7,5.7,0,0,0-1.65,0H207a3.19,3.19,0,0,0-2.41,1,3.54,3.54,0,0,0-.66,2.67,14.33,14.33,0,0,1-.1,3c-.36,2.89-.4,4.76,2.46,5.94Z" fill="#4bb522"/></g></g></svg>