<svg xmlns="http://www.w3.org/2000/svg" width="51.574" height="51.515" viewBox="0 0 51.574 51.515"><g transform="translate(-49.213 -631.5)"><path d="M55.678,90.032,57,88.992l-.48,3.405H55l.062-3.405h10.75l.054,3.405H64.358l-.487-3.405,1.314,1.034Zm5.137,9.729,2.761.274v.984H57.3v-.984l2.707-.274Zm-1.919-5.1c0-1.885,0-3.789-.054-5.675h3.181c-.056,1.85-.056,3.754-.056,5.675v.666c0,1.9,0,3.8.056,5.688H58.84c.054-1.85.054-3.754.054-5.675Z" transform="translate(6.46 562.329)" fill="#009a3b"/><path d="M25.776,0A7.609,7.609,0,0,1,30.9,2.412,8.377,8.377,0,0,1,34.142,1.7c1.937,0,4.492.847,5.832,4.815.083,0,.176,0,.278,0a6.466,6.466,0,0,1,4.808,1.895,7.156,7.156,0,0,1,1.475,5.527,7.154,7.154,0,0,1,3.806,3.586,7.094,7.094,0,0,1-.475,5.863,7.25,7.25,0,0,1,1.668,4.6,7.957,7.957,0,0,1-2.675,5.5,7.165,7.165,0,0,1-.309,5.337,6.844,6.844,0,0,1-4.741,3.218,8.145,8.145,0,0,1-.849,2.773,5.956,5.956,0,0,1-5.65,3.213,10.834,10.834,0,0,1-1.656-.135,7.717,7.717,0,0,1-1.08,1.6,5.527,5.527,0,0,1-4.219,2A8.564,8.564,0,0,1,25.891,50a7.363,7.363,0,0,1-4.222,1.515,5.52,5.52,0,0,1-2.93-.846,8.823,8.823,0,0,1-2.7-2.79,8.9,8.9,0,0,1-1.153.074,7.494,7.494,0,0,1-4.017-1.081,6.871,6.871,0,0,1-2.939-4.84A8.181,8.181,0,0,1,3.121,38.5a6.087,6.087,0,0,1-.209-4.977A7.729,7.729,0,0,1,.033,28.871a7.6,7.6,0,0,1,1.8-5.822,6.711,6.711,0,0,1-.852-5.271c.55-1.656,1.976-2.944,4.241-3.834A6.808,6.808,0,0,1,6.263,8.8c1.072-1.382,2.825-2.114,5.212-2.179a9.082,9.082,0,0,1,1.254-2.205A6.29,6.29,0,0,1,17.815,1.83a8.926,8.926,0,0,1,3.195.652A6.365,6.365,0,0,1,25.775,0ZM30.71,3.625l-.262-.257A6.889,6.889,0,0,0,25.775,1a5.587,5.587,0,0,0-4.181,2.368l-.229.345-.382-.161a8.224,8.224,0,0,0-3.169-.72c-4.109,0-5.494,4.389-5.508,4.433l-.108.354h-.37c-2.24,0-3.846.6-4.771,1.792-1.471,1.89-.782,4.7-.775,4.73l.112.441-.428.153c-2.2.783-3.554,1.913-4.034,3.359-.7,2.106.642,4.281.919,4.7a.5.5,0,0,1,.035.528l-.022.041-.029.036A6.833,6.833,0,0,0,1.02,28.709a6.962,6.962,0,0,0,2.765,4.22l.331.221-.14.373A5.3,5.3,0,0,0,4,38.025c1.259,2.353,4.453,3.11,4.485,3.118l.332.076.051.338c.664,4.458,3.64,5.394,6.02,5.394a7.129,7.129,0,0,0,1.3-.109l.344-.071.184.3c1.4,2.284,3.064,3.443,4.953,3.443a6.578,6.578,0,0,0,3.858-1.5l.287-.253.32.21a7.881,7.881,0,0,0,4.22,1.521c3.2,0,4.527-3.3,4.54-3.338l.151-.385.407.076a10.228,10.228,0,0,0,1.858.184,4.975,4.975,0,0,0,4.766-2.68,7.05,7.05,0,0,0,.767-2.729l.013-.393.384-.081c2.188-.459,3.677-1.4,4.426-2.788a6.426,6.426,0,0,0,.152-4.824l-.124-.314.245-.233a7.174,7.174,0,0,0,2.594-5,6.367,6.367,0,0,0-1.62-4.167l-.248-.255.158-.319c1.019-2.038,1.22-3.83.6-5.327a6.414,6.414,0,0,0-3.573-3.174l-.382-.126.04-.4c.234-2.275-.166-4-1.189-5.136a5.486,5.486,0,0,0-4.066-1.565,5.249,5.249,0,0,0-.572.027l-.417.051-.123-.4c-.9-2.977-2.583-4.486-5-4.486a7.462,7.462,0,0,0-3.108.752Z" transform="translate(49.252 631.502)"/><path d="M19.346-.5a19.548,19.548,0,0,1,7.727,1.577,19.769,19.769,0,0,1,6.308,4.3,20.168,20.168,0,0,1,0,28.352,19.769,19.769,0,0,1-6.308,4.3,19.722,19.722,0,0,1-15.454,0,19.769,19.769,0,0,1-6.308-4.3,20.168,20.168,0,0,1,0-28.352,19.769,19.769,0,0,1,6.308-4.3A19.548,19.548,0,0,1,19.346-.5Zm0,39.1a19.051,19.051,0,0,0,0-38.1,19.051,19.051,0,0,0,0,38.1Z" transform="translate(55.735 637.783)"/><path d="M108.14,100.051l2.124-.282h.526l1.807.274v.984H108.14ZM108.3,89h2.613l.028,1.258h-.3l-2.341-.267Zm1.609,0h1.047l.138,6.341v5.688h-1.185Zm.11,0h3.11l3.3,8.91h-.607l3.11-8.91h1.208l-4.224,12.029H114.5Zm7.754,11.045,2.343-.276h.842l2.662.282v.984h-5.846Zm1.368-4.308L119.206,89h3.052c-.054,1.876-.054,3.78-.054,5.675v.678c0,1.913,0,3.817.054,5.675h-3.164c.045-1.87.032-3.774.045-5.286ZM120.667,89h2.88v.991l-2.585.274h-.3Z" transform="translate(-35.234 562.062)" fill="#009a3b"/></g></svg>